<svg id="Abstract" xmlns="http://www.w3.org/2000/svg" width="246.003" height="172.409" viewBox="0 0 246.003 172.409">
  <path id="Vector" d="M62.884,37.448a3,3,0,0,1-2.42,2.041L42.319,42.126,34.2,58.568a3,3,0,0,1-5.378,0L20.712,42.126,2.567,39.489A3,3,0,0,1,.906,34.375l13.13-12.8-3.1-18.071A3,3,0,0,1,15.286.344L31.515,8.877,47.744.344A3,3,0,0,1,52.1,3.505L49,21.577l13.129,12.8a3,3,0,0,1,.759,3.074Z" transform="translate(165.084 79.639) rotate(-21.844)" fill="#f19b08"/>
  <path id="Vector-2" data-name="Vector" d="M139.958,4.186c-7.528,12.468-15.527,24.7-23.055,37.17-1.412,2.353-5.411,1.412-5.176-1.412,0-5.411.235-10.586.235-16-3.764,4-4.705,8.7-5.411,14.351-.471,2.353-1.412,4.941-4,5.646-4,1.176-8.469-2.823-11.527-4.94C83.261,33.592,76.2,27.24,67.734,22.77c-9.881-4.94-10.116,2.117-8,9.881A96.39,96.39,0,0,0,69.852,56.412c7.528,12.7,16.233,25.878,18.35,40.7,1.176,8.234-3.058,20.7-13.41,20.232-12.7-.471-27.29-9.881-35.523-19.291C34.563,93.347,7.744,58.059,5.156,78.29,3.274,93.111,15.508,111.226,22.8,123.459a1.615,1.615,0,0,1-2.588,1.882A101.328,101.328,0,0,1,.452,85.348c-1.647-7.763.941-22.114,12.233-19.056,13.174,3.529,21.879,18.35,30.348,28.231,5.176,6.352,13.409,11.057,20.467,14.821,15.056,8,21.879-3.764,18.115-17.409-4.7-16.7-16.7-30.347-23.525-46.11C55.736,40.18,47.267,21.36,56.442,16.654c10.586-5.411,24.7,8,32.23,13.88-.471-.235,12,9.881,12.7,7.763s.706-4.7,1.177-7.057a19.586,19.586,0,0,1,5.881-10.822,64.136,64.136,0,0,1-13.41-.706c-2.353-.471-2.588-4-.706-5.176,13.41-7.528,28.466-9.41,42.816-14.351C139.252-.755,141.369,2.068,139.958,4.186Zm-25.407,12A1.625,1.625,0,0,1,116.2,18.3a2.471,2.471,0,0,1,1.176,2.117v9.41c4.705-7.528,9.41-14.821,14.115-22.35-8.94,2.588-18.115,4.47-26.583,8C107.963,15.713,111.256,15.948,114.55,16.184Z" transform="translate(163.067 38.849) rotate(107.977)" fill="#006591"/>
</svg>
