<svg width="665" height="656" viewBox="0 0 665 656" fill="none" xmlns="http://www.w3.org/2000/svg">
<path opacity="0.1" d="M603.8 472.98C582.69 520.83 561.6 541.31 555.32 536.06C546.79 528.29 537.96 495.77 529.59 454.26C537.39 444.58 544.79 435.21 551.83 426.23C576.65 394.74 607.44 355.69 619.91 351.69C638.33 347.41 630.31 412.88 603.8 472.98ZM47.42 404.38L41.71 398.7C9.31 351.19 61.19 299.34 108.73 331.74L114.41 337.41C146.78 384.95 94.93 436.8 47.42 404.37M278.48 423.62C278.48 446.55 259.85 465.18 236.98 465.18C214.11 465.18 195.41 446.55 195.41 423.62C195.41 400.69 214.04 382.08 236.98 382.08C259.92 382.08 278.48 400.71 278.48 423.62ZM634.47 317.16C601.79 301.93 571.37 341.19 520.52 405.66C515.12 374.44 510.08 341.77 505.5 312.64C475.28 118.8 453.96 0 398.46 0C337.39 0 317.03 64.23 237.48 354.11H236.97C198.62 354.11 167.4 385.33 167.4 423.62C167.4 461.91 198.62 493.15 236.97 493.15C275.32 493.15 306.44 461.9 306.44 423.62C306.44 398.62 293.15 376.74 273.34 364.49C304.8 250.08 322.95 205.06 342.45 134.89C371.88 28.98 390.38 37.29 393.51 37.23C394.18 37.47 416.84 36.56 434.2 125.76C456.8 241.74 497.34 479.02 497.34 479.02C497.34 479.02 488.27 460 479.29 456.81C414.21 534.36 327.78 618.54 224.11 618.54C140.44 618.54 104.09 519.42 97.72 443.55C144.38 431.35 174.23 377.17 143.77 323.89C138.67 314.97 131.24 307.57 122.35 302.44C61.95 267.74 0 310.79 0 368.1C0 405.08 25.85 436.03 60.37 444.07C63.74 489.79 76.42 535.99 95.71 571.37C125.93 626.59 170.34 655.83 224.1 655.83C338.9 655.83 430.49 571.25 499.51 490.67C511.1 538.82 523.11 563.08 540.41 570.37C572.84 583.81 609.19 553.01 637.89 488.06C667.71 420.41 679.39 338.06 634.46 317.16" fill="#117AA0"/>
</svg>
