<svg id="Group_4843" data-name="Group 4843" xmlns="http://www.w3.org/2000/svg" xmlns:xlink="http://www.w3.org/1999/xlink" width="709.336" height="841.075" viewBox="0 0 709.336 841.075">
  <defs>
    <clipPath id="clip-path">
      <rect id="Rectangle_2326" data-name="Rectangle 2326" width="709.336" height="841.075" fill="none"/>
    </clipPath>
  </defs>
  <g id="Group_4842" data-name="Group 4842" clip-path="url(#clip-path)">
    <path id="Path_9402" data-name="Path 9402" d="M215.855,302.181c-2.714,6.506-3.51,23.592,3.8,27.664,7.349,4.082,13.851,8.1,13.851,8.1s-7.637,10.584-17.653,7.354a18.73,18.73,0,0,1-7.577-4.7c-3.4-3.4-4.645-6.673-7.312-5.091-4.058,2.434-20.712-.8-29.075-1.581-8.378-.853-20.546,5.659-27.446-1.643-6.953-7.359-17.948,13.41-29.541-.223-1.8-27.451,1.871-42.108,8.549-46.976,6.73-4.863,22.573-18.33,17.09-26.874s-15.229-23.156-10.361-25.017l4.868-1.814s-6.844-9.726-10.3-16.743v-.052c0-.682.513-7.585,13.578-7.585,13.811,0,22.36-6.167,28.237,3.844,5.941,9.959-8.259,23.823,5.327,22.184,13.633-1.648,8.311-18.84,13.809-13.92,5.488,4.98-5.55,17.138,4.863,9.052,10.4-8.145,5.488-14.654,11.209-14.654s24.388-.848,19.515,8.941c-4.863,9.734-11.652,6.507-5.431,22.747,4.987,13.018,18.166,8.373,21.106,13.018.734,1.185.853,2.942,0,5.711-4.3,13.814-1.467,18.734-9.778,18.734C218.852,282.657,218.569,295.67,215.855,302.181Z" transform="translate(169.23 303.308)" fill="none" stroke="#0476a0" stroke-width="0.5"/>
    <path id="Path_9403" data-name="Path 9403" d="M669.66,307.61c0,10.968-8.534,14.651-11.03,30.493-2.441,15.849-6.048,36.444-12.168,39.555-6.112,3.173-21.334,8.6-21.334,12,0,3.339,2.439,13.127-5.545,19.8-7.912,6.735-13.417,17.091-19.53,20.152-6.053,3.049-14.594,7.917-17.648,12.217-2.094,2.883-5.324,7.808-8.775,13.415v.057c-1.586,2.548-3.17,5.208-4.7,7.865-4.863,8.544-7.285,14.037-10.968,18.957-.91,1.187-2.382,2.935-4.013,4.925-4.928,6.107-11.045,14.708-5.094,18.845,7.922,5.485,10.351.62,12.16,4.861,1.866,4.3-9.112,23.2-5.488,31.744,2.935,6.849,11.028,7.81,14.089,11.432a4.819,4.819,0,0,1,1.182,3.23c0,6.678-5.488,13.407-5.488,26.2,0,12.842,9.736.625,1.819,18.335s-6.683,18.28-22.588,27.441C528.7,638.3,528.7,639.49,523.837,645.6c-4.93,6.117-20.144,21.959-20.144,21.959a190.641,190.641,0,0,1,7.932,23.825c3.034,12.168,6.1,23.766,0,26.257-6.122,2.429-15.859,1.814-17.105,4.248s-6.732,9.731-6.732,14.652c0,4.873,2.491,2.429,0,13.415-2.432,10.978,1.864,12.785-10.358,20.766-12.155,7.927-4.246,15.224-18.273,28.629-14.024,13.479-18.34,20.144-28.069,23.825-9.791,3.626-18.959-3.681-23.823,4.243s-23.768-1.8-28.064,3.683c-4.241,5.488-4.241,8.539-21.336,7.917s-8.549-25.632-8.549-31.117-16.295-3.054-14.262-14.6c1.024-5.659-5.659-13.98-12.212-22.915-6.958-9.337-13.809-19.3-11.947-27.731,3.621-16.52,10.356-22.006,1.814-42.718-8.549-20.771-27.444-37.869-29.313-65.3,11.59,13.635,22.588-7.136,29.538.223,6.9,7.3,19.071.791,27.446,1.643,8.363.786,25.017,4.016,29.077,1.581,2.665-1.581,3.906,1.7,7.31,5.091a18.722,18.722,0,0,0,7.577,4.7C394.36,651.1,402,640.511,402,640.511s-6.5-4.016-13.851-8.1c-7.312-4.072-6.516-21.158-3.8-27.664s3-19.525,11.328-19.525c8.311,0,5.485-4.92,9.778-18.731.853-2.771.734-4.528,0-5.713-2.937-4.645-16.119,0-21.106-13.016-6.221-16.243.573-13.013,5.433-22.749,4.873-9.788-13.811-8.941-19.517-8.941s-.8,6.511-11.209,14.656c-10.413,8.083.63-4.072-4.863-9.055-5.5-4.92-.174,12.274-13.809,13.923-13.586,1.638.617-12.227-5.327-22.187-5.877-10.011-14.423-3.844-28.237-3.844-13.065,0-13.576,6.9-13.576,7.585A19.264,19.264,0,0,1,291.317,512c-.573-5.485-1.195-13.407-1.195-13.407s-8.532-11.377-16.515-22.578c-6.913-9.736-13.355-19.411-13.355-21.393,0-4.243-5.483,0,.565-14.032,6.107-14.037,1.244-12.165,6.732-23.768a18.254,18.254,0,0,0,1.581-5.032c1.866-10.477-4.36-21.567-10.123-23.659-6.673-2.429-16.867,11.994-27.05.226-3.163-3.735-8.323-2.655-9.565-8.77l-1.195-6.107h-5.545l-4.236-6.12a75.166,75.166,0,0,0-11.375-.9c-2.662.062-5.612.342-10.584.9-.682.057-1.356.176-1.923.176-8.485.5-4.816-3.23-13.923,5.379-9.8,9.107-15.276,13.97-21.389,12.158-2.714-.788-5.376-2.828-8.492-4.638-3.963-2.263-8.534-4.238-14.7-3.054-10.814,2.149-17.435,16.181-32.773,11.2a2.349,2.349,0,0,1-.786-.223c-15.846-5.716-34.746-22.179-46.966-34.4-12.17-12.17-1.814-10.361-11.608-23.148-7.577-10.014-21.83-26.99-28.064-35.755a22.954,22.954,0,0,1-3.064-5.158c-.558-3.678-1.8-.62,0-6.11,1.876-5.488-7.29-9.734-4.853-14.6,2.09-4.191,7.691-6.115,9.669-15.561a41.831,41.831,0,0,0,.687-5.83c.612-14.656-1.2-39.044-2.439-53.081-1.187-14.039,3.051-14.039,8.546-25.012s6.732-11.6,10.41-25.012C31.42,131.277,41.2,139.2,41.82,130.03c.454-7.245.568-13.752,3.334-16.129a4,4,0,0,1,2.722-.962c5.49,0,21.391-1.809,25.639-13.41,4.3-11.6,2.429-6.115,3.049-18.28.63-12.22,1.249,1.19,6.11-15.9s7.932-8.542,21.336-17.086c13.464-8.542,0-23.141,12.217-23.141s5.493,4.858,19.53,4.236c11.6-.5,8.6,7.3,18.278,3.52a55.2,55.2,0,0,0,7.971-4.144C181.543,17.136,179.1,20.2,193.7,13.52c14.666-6.74,12.227-12.847,19.52-5.5,7.359,7.307,1.247,14.609,12.852,6.687S232.738-1.08,241.3,4.693a8.626,8.626,0,0,0,7.354.9c6.9-1.752,14.091-8.539,17.658-2.885,4.92,7.758.615,8.946,6.107,13.861,5.49,4.873,9.174,1.2,7.354,8.554-1.864,7.3-18.335,14.6-13.462,19.52,4.92,4.863,12.552,9.734,13.913,12.165s7.471,0,11.719,1.864c4.3,1.814,14.661-12.217,21.954-1.244,7.354,10.981-8.487,20.774,9.174,21.954,17.7,1.244,20.759-6.1,25.012,1.869,4.3,7.924,3.673,14.6,11.6,4.248,7.909-10.351-9.171-20.149,12.842-23.773,21.946-3.678,19.52,6.063,32.927,9.117,4.583,1.019,6.906.962,8.373.625,3.012-.625,3.116-2.149,11.159,1.809,12.222,6.1,6.67.625,12.222,6.1,5.428,5.493,9.1,4.878,15.214,4.878s6.122-13.417,18.283-8.492c12.225,4.858,9.791,9.107,22.008,9.107,12.178,0,16.471,9.169,15.846,11.6s-9.791,20.764-9.791,20.764.632-23.825-12.153-22.573c-12.857,1.187,1.795,15.839,7.282,27.446s29.315,42.1,25.632,45.157-20.761,17.086-20.761,17.086l-7.295,3.624s9.788.62,13.417-.57c3.668-1.244,23.2-6.112,25.627,4.873s-11.608,18.27,0,29.871,15.276,5.5,15.276,15.284c0,9.731-3.681,15.224,10.356,26.195,7.3,5.721,13.241,9,17.485,12.227,3.906,3,6.283,6,6.908,10.983.791,6.568,2.033,9.679,4.239,13.291,1.311,2.094,2.888,4.362,4.915,7.478,5.5,8.539-5.475,6.668,5.5,8.539,10.976,1.812,42.723,2.429,51.886-3.061C656.188,307.61,669.66,296.625,669.66,307.61Z" transform="translate(0.739 0.74)" fill="none" stroke="#0476a0" stroke-width="1"/>
    <path id="Path_9404" data-name="Path 9404" d="M669.66,307.61c0,10.968-8.534,14.651-11.03,30.493-2.441,15.849-6.048,36.444-12.168,39.555-6.112,3.173-21.334,8.6-21.334,12,0,3.339,2.439,13.127-5.545,19.8-7.912,6.735-13.417,17.091-19.53,20.152-6.053,3.049-14.594,7.917-17.648,12.217-2.094,2.883-5.324,7.808-8.775,13.415v.057c-1.586,2.548-3.17,5.208-4.7,7.865-4.863,8.544-7.285,14.037-10.968,18.957-.91,1.187-2.382,2.935-4.013,4.925-4.928,6.107-11.045,14.708-5.094,18.845,7.922,5.485,10.351.62,12.16,4.861,1.866,4.3-9.112,23.2-5.488,31.744,2.935,6.849,11.028,7.81,14.089,11.432a4.819,4.819,0,0,1,1.182,3.23c0,6.678-5.488,13.407-5.488,26.2,0,12.842,9.736.625,1.819,18.335s-6.683,18.28-22.588,27.441C528.7,638.3,528.7,639.49,523.837,645.6c-4.93,6.117-20.144,21.959-20.144,21.959a190.641,190.641,0,0,1,7.932,23.825c3.034,12.168,6.1,23.766,0,26.257-6.122,2.429-15.859,1.814-17.105,4.248s-6.732,9.731-6.732,14.652c0,4.873,2.491,2.429,0,13.415-2.432,10.978,1.864,12.785-10.358,20.766-12.155,7.927-4.246,15.224-18.273,28.629-14.024,13.479-18.34,20.144-28.069,23.825-9.791,3.626-18.959-3.681-23.823,4.243s-23.768-1.8-28.064,3.683c-4.241,5.488-4.241,8.539-21.336,7.917s-8.549-25.632-8.549-31.117-16.295-3.054-14.262-14.6c1.024-5.659-5.659-13.98-12.212-22.915-6.958-9.337-13.809-19.3-11.947-27.731,3.621-16.52,10.356-22.006,1.814-42.718-8.549-20.771-27.444-37.869-29.313-65.3,11.59,13.635,22.588-7.136,29.538.223,6.9,7.3,19.071.791,27.446,1.643,8.363.786,25.017,4.016,29.077,1.581,2.665-1.581,3.906,1.7,7.31,5.091a18.722,18.722,0,0,0,7.577,4.7C394.36,651.1,402,640.511,402,640.511s-6.5-4.016-13.851-8.1c-7.312-4.072-6.516-21.158-3.8-27.664s3-19.525,11.328-19.525c8.311,0,5.485-4.92,9.778-18.731.853-2.771.734-4.528,0-5.713-2.937-4.645-16.119,0-21.106-13.016-6.221-16.243.573-13.013,5.433-22.749,4.873-9.788-13.811-8.941-19.517-8.941s-.8,6.511-11.209,14.656c-10.413,8.083.63-4.072-4.863-9.055-5.5-4.92-.174,12.274-13.809,13.923-13.586,1.638.617-12.227-5.327-22.187-5.877-10.011-14.423-3.844-28.237-3.844-13.065,0-13.576,6.9-13.576,7.585A19.264,19.264,0,0,1,291.317,512c-.573-5.485-1.195-13.407-1.195-13.407s-8.532-11.377-16.515-22.578c-6.913-9.736-13.355-19.411-13.355-21.393,0-4.243-5.483,0,.565-14.032,6.107-14.037,1.244-12.165,6.732-23.768a18.254,18.254,0,0,0,1.581-5.032c1.866-10.477-4.36-21.567-10.123-23.659-6.673-2.429-16.867,11.994-27.05.226-3.163-3.735-8.323-2.655-9.565-8.77l-1.195-6.107h-5.545l-4.236-6.12a75.166,75.166,0,0,0-11.375-.9c-2.662.062-5.612.342-10.584.9-.682.057-1.356.176-1.923.176-8.485.5-4.816-3.23-13.923,5.379-9.8,9.107-15.276,13.97-21.389,12.158-2.714-.788-5.376-2.828-8.492-4.638-3.963-2.263-8.534-4.238-14.7-3.054-10.814,2.149-17.435,16.181-32.773,11.2a2.349,2.349,0,0,1-.786-.223c-15.846-5.716-34.746-22.179-46.966-34.4-12.17-12.17-1.814-10.361-11.608-23.148-7.577-10.014-21.83-26.99-28.064-35.755a22.954,22.954,0,0,1-3.064-5.158c-.558-3.678-1.8-.62,0-6.11,1.876-5.488-7.29-9.734-4.853-14.6,2.09-4.191,7.691-6.115,9.669-15.561a41.831,41.831,0,0,0,.687-5.83c.612-14.656-1.2-39.044-2.439-53.081-1.187-14.039,3.051-14.039,8.546-25.012s6.732-11.6,10.41-25.012C31.42,131.277,41.2,139.2,41.82,130.03c.454-7.245.568-13.752,3.334-16.129a4,4,0,0,1,2.722-.962c5.49,0,21.391-1.809,25.639-13.41,4.3-11.6,2.429-6.115,3.049-18.28.63-12.22,1.249,1.19,6.11-15.9s7.932-8.542,21.336-17.086c13.464-8.542,0-23.141,12.217-23.141s5.493,4.858,19.53,4.236c11.6-.5,8.6,7.3,18.278,3.52a55.2,55.2,0,0,0,7.971-4.144C181.543,17.136,179.1,20.2,193.7,13.52c14.666-6.74,12.227-12.847,19.52-5.5,7.359,7.307,1.247,14.609,12.852,6.687S232.738-1.08,241.3,4.693a8.626,8.626,0,0,0,7.354.9c6.9-1.752,14.091-8.539,17.658-2.885,4.92,7.758.615,8.946,6.107,13.861,5.49,4.873,9.174,1.2,7.354,8.554-1.864,7.3-18.335,14.6-13.462,19.52,4.92,4.863,12.552,9.734,13.913,12.165s7.471,0,11.719,1.864c4.3,1.814,14.661-12.217,21.954-1.244,7.354,10.981-8.487,20.774,9.174,21.954,17.7,1.244,20.759-6.1,25.012,1.869,4.3,7.924,3.673,14.6,11.6,4.248,7.909-10.351-9.171-20.149,12.842-23.773,21.946-3.678,19.52,6.063,32.927,9.117,4.583,1.019,6.906.962,8.373.625,3.012-.625,3.116-2.149,11.159,1.809,12.222,6.1,6.67.625,12.222,6.1,5.428,5.493,9.1,4.878,15.214,4.878s6.122-13.417,18.283-8.492c12.225,4.858,9.791,9.107,22.008,9.107,12.178,0,16.471,9.169,15.846,11.6s-9.791,20.764-9.791,20.764.632-23.825-12.153-22.573c-12.857,1.187,1.795,15.839,7.282,27.446s29.315,42.1,25.632,45.157-20.761,17.086-20.761,17.086l-7.295,3.624s9.788.62,13.417-.57c3.668-1.244,23.2-6.112,25.627,4.873s-11.608,18.27,0,29.871,15.276,5.5,15.276,15.284c0,9.731-3.681,15.224,10.356,26.195,7.3,5.721,13.241,9,17.485,12.227,3.906,3,6.283,6,6.908,10.983.791,6.568,2.033,9.679,4.239,13.291,1.311,2.094,2.888,4.362,4.915,7.478,5.5,8.539-5.475,6.668,5.5,8.539,10.976,1.812,42.723,2.429,51.886-3.061C656.188,307.61,669.66,296.625,669.66,307.61Z" transform="translate(0.739 0.74)" fill="none" stroke="#0476a0" stroke-width="0.5"/>
    <path id="Path_9405" data-name="Path 9405" d="M127.357,13.563s-7.386,7.473,0,17.242,17.138,12.8,4.93,14.632c-12.19,1.829-21.351-3.054-23.793,7.327s-7.315,13.425-19.517,17.69S72.5,80.215,67,83.886c-5.483,3.654-8.534,10.366-8.534,10.366s-13.42,9.154-23.8,9.764-16.151-9.409-16.151-9.409" transform="translate(27.39 20.055)" fill="none" stroke="#0476a0" stroke-width="0.5"/>
    <path id="Path_9406" data-name="Path 9406" d="M3.866,127.267c17.09,4.271,30.525,6.1,32.954,0s-6.06-16.473,3.376-17.69,11.883-1.834,11.883-12.815-10.371-14.642,0-16.476,23.8-3.054,28.676-7.932,10.983-12.2-.61-26.239" transform="translate(5.717 68.189)" fill="none" stroke="#0476a0" stroke-width="0.5"/>
    <path id="Path_9407" data-name="Path 9407" d="M106.149,2.555s2.449,14.624,0,20.117S95.773,27.548,96.99,37.314s-1.467,14.642,10.257,25.622,10.485,13.427,9.875,20.742,3.663,12.207,4.276,18.308-.612,15.921,0,18.337-8.544-3.083-6.1,6.675,2.189,7.942,6.278,12.82-4.7,5.493,0,10.99c4.7,5.48,9.585-3.054,15.078,7.922s8.539,13.427,20.132,12.815,14.034-24.14,28.681-18.479,56.747,44.718,63.452,48.379a13.592,13.592,0,0,0,12.82,0s4.276,19.53,7.937,12.815c3.641-6.72,1.207-104.957-5.5-116.535-6.7-11.6-5.5-7.937-.61-13.425s7.8-15.866,7.8-15.866" transform="translate(143.231 3.778)" fill="none" stroke="#0476a0" stroke-width="0.5"/>
    <path id="Path_9408" data-name="Path 9408" d="M37.318,51.778S48.37,60.32,58.746,67.032s2.439,3.659,21.341,21.356c18.925,17.69,21.376,24.405,36.01,29.288s17.081,7.927,19.52,10.371,9.156-5.493,9.768,0-3.666,12.562,3.049,14.827,21.356-3.24,25.012-6.288,37.1-39.865,55.458-43.419" transform="translate(55.181 76.563)" fill="none" stroke="#0476a0" stroke-width="0.5"/>
    <path id="Path_9409" data-name="Path 9409" d="M4.571,161.341a40.451,40.451,0,0,1,14.736-5.228c8.534-1.227,18.947-1.747,19.847,5.228a33.165,33.165,0,0,0,5.138,13.08h6.744v-5.493h8.537c1.829,0,19.529,1.832,19.529,1.832s8.534-.615,10.371-.615,24.405,2.93,23.181-5.247-4.883-10.011-6.1-29.526-7.322-68.687-3.666-71.562,14.552,2.243,18.26.9" transform="translate(6.759 93.033)" fill="none" stroke="#0476a0" stroke-width="0.5"/>
    <path id="Path_9410" data-name="Path 9410" d="M182.194,88.53s7.652,29.1,0,32.766-16.2,6.71-21.081,8.537-3.666,7.322-10.371,6.715a67.641,67.641,0,0,0-12.2,0s7.9-3.559-3.376.04L123.891,140.2s3.666,4.281-5.493,7.322c-9.154,3.059-10.376,0-10.981,6.71s-9.761-4.873-12.815,0,1.832,3.054,0,8.546-9.766,10.99-9.766,10.99,1.227,3.041,0,7.924-3.039,6.715-5.493,6.715c-2.424,0,1.227.6-2.424,0-3.668-.617-9.768.27-9.768.27a29.386,29.386,0,0,1-4.952,0c-1.153-.27.069,5.228-3.592-6.985s-10.368-16.471-10.368-16.471-1.971,5.488-8.923,2.429c-6.95-3.036-12.426,6.117-12.426-3.036s-5.565-1.229-6.142-9.161a187.7,187.7,0,0,1,0-18.91" transform="translate(30.303 130.907)" fill="none" stroke="#0476a0" stroke-width="0.5"/>
    <path id="Path_9411" data-name="Path 9411" d="M3.866,122.125s4.276-.932,17.09,0,8.532,7.657,15.864,4a86.141,86.141,0,0,0,13.561-8.67" transform="translate(5.717 173.671)" fill="none" stroke="#0476a0" stroke-width="0.5"/>
    <path id="Path_9412" data-name="Path 9412" d="M16.414,141.755S31.69,128,36.568,132.27s-.6,14.037,6.1,14.644,9.768-10.371,11.6,0,6.7,17.7,8.544,17.7,7.927,3.651,8.537,6.1,10.073,13.415,10.073,13.415S78.1,197.35,71.961,194.7" transform="translate(24.271 194.368)" fill="none" stroke="#0476a0" stroke-width="0.5"/>
    <path id="Path_9413" data-name="Path 9413" d="M40.55,128.934S51,140.257,45.5,143.3c-5.5,3.059-4.4.622-4.952,6.725s-1.15,15.254-5.418,18.307" transform="translate(51.949 190.652)" fill="none" stroke="#0476a0" stroke-width="0.5"/>
    <path id="Path_9414" data-name="Path 9414" d="M46.331,128.5s-4.514-2.511,3.418,2.927,7.724-1.1,16.974,5.228,15.975-1.621,13.529,9.357-4.268,13.425-6.71,18.917-3.041,3.051-3.656,9.756,1.358,13.819,8.911,17.9" transform="translate(66.617 189.161)" fill="none" stroke="#0476a0" stroke-width="0.5"/>
    <path id="Path_9415" data-name="Path 9415" d="M94.519,107.9s-6.1,5.488,0,14.037,10.366,13.144,14.034,19.381-3.329,17.024-8.375,16.206-14.837-5.7-17.571-3.259-7.61-3.044-12.5-3.044-13.427-3.054-14.029,1.827c-.62,4.883,5.575,16.149,5.575,16.149" transform="translate(82.863 159.552)" fill="none" stroke="#0476a0" stroke-width="0.5"/>
    <path id="Path_9416" data-name="Path 9416" d="M71.136,185.988A56.037,56.037,0,0,0,74.8,165.854c0-11.6-.607-10.381-3.666-18.92s0-20.04,0-20.04" transform="translate(103.187 187.635)" fill="none" stroke="#0476a0" stroke-width="0.5"/>
    <path id="Path_9417" data-name="Path 9417" d="M79.543,179.14s4.209-14.116,0-24.232-7.53-21.9-5.255-26.988" transform="translate(108.755 189.154)" fill="none" stroke="#0476a0" stroke-width="0.5"/>
    <path id="Path_9418" data-name="Path 9418" d="M88.017,193.438s-8.534-21.864-3.661-29.013c4.893-7.151,14.032-11.93,12.815-18.692s0-1.274-1.217-6.772A53.619,53.619,0,0,1,94.736,128.6l-2.439-2.58s-11.417-15.437-15.774-2.776" transform="translate(113.153 174.856)" fill="none" stroke="#0476a0" stroke-width="0.5"/>
    <path id="Path_9419" data-name="Path 9419" d="M200.405,62.918s-7.324,12.051-7.324,24.256,3.054,12.708,3.659,19.173c.615,6.445.615,10.876,0,12.322s-.6-8.926-.6,1.445,1.22,5.5.6,13.425,4.888,12.208-3.659,20.134-13.415,17.693-14.639,27.456-4.271,16.825-10.981,16.959-3.054-10.239-14.042-7.193-11.59,7.059-20.737,7.193-10.988-13.913-14.027-7.193c-3.061,6.7-7.939,15.308-11.6,9.171-3.659-6.117-8.98-15.891-15.172-12.832-6.187,3.039,8.45,16.957-8.016,23.183" transform="translate(124.017 93.036)" fill="none" stroke="#0476a0" stroke-width="0.5"/>
    <path id="Path_9420" data-name="Path 9420" d="M93.88,225.516s2.035,1.024,11.189-3.859,8.549-3.941,15.866-16.915,10.371-7.493,21.956-9.315,6.715-11.942,11-19.7c4.261-7.761,7.922-10.019,10.976-13.462s-1.832-12.611,0-16.268,10.371,2.439,14.027-6.1-9.756-10.988-15.249-29.291" transform="translate(138.818 163.555)" fill="none" stroke="#0476a0" stroke-width="0.5"/>
    <path id="Path_9421" data-name="Path 9421" d="M108.877,218.14s11.838,3.515,17.331,0,14.646-2.585,19.525,0,13.425-.072,17.7,1.564,6.454-4.457,2.917-9.949-8.388-1.252-9-14.964-6.725-14.609-3.069-20.866,7.32-1.663,9.154-10.678-12.81-29.583-20.742-31.8" transform="translate(160.994 194.369)" fill="none" stroke="#0476a0" stroke-width="0.5"/>
    <path id="Path_9422" data-name="Path 9422" d="M132.312,122.425s1.232,11.7,6.715,17.138-13.648,10.106-13.648,10.106" transform="translate(185.395 181.027)" fill="none" stroke="#0476a0" stroke-width="0.5"/>
    <path id="Path_9423" data-name="Path 9423" d="M135.835,165.577s-5.4,12.014,0,13.236,12.118-4.883,13.94,0-8.41,12.207-8.162,14.032,8.6,10.986,8.39,12.817-3.879,2.439-5.711,6.11c-1.832,3.646-17.7,4.251-17.7,4.251s-6.229,1.842-6.167,6.11,7.394,8.542,3.116,9.773c-4.266,1.212-12.859,0-12.859,0" transform="translate(163.662 244.835)" fill="none" stroke="#0476a0" stroke-width="0.5"/>
    <path id="Path_9424" data-name="Path 9424" d="M117.346,273.036s2-9.149,8.633-9.149,4.935-10.381,11.28-4.893c6.321,5.5-1.46,15.259,7.3,9.159,8.784-6.107,15.494-13.42,14.272-22.573s-5.9-14.637,3.458-19.525,15.457-12.141,14.855-26.5,6.1-15.6,4.268-24.14,9.149-25.23,18.3-19.934,31.732,2.023,34.776,0,3.056-.012,9.761-1.021,12.208.4,14.034,0,1.222-2.781,4.883-.364.61-.035,10.976,5.458a31.62,31.62,0,0,0,19.53,3.6s3.661,4.325,4.883,6.162,6.1,6.715,10.99,5.488c4.868-1.217,6.7,0,10.361-2.439s5.493-3.049,7.332-4.885c1.822-1.829,3.664-11.811,9.149-12a44.048,44.048,0,0,0,11.588-2.451" transform="translate(173.517 226.272)" fill="none" stroke="#0476a0" stroke-width="0.5"/>
    <path id="Path_9425" data-name="Path 9425" d="M171.3,83.35s6.375,22.417,5.148,29.729-2.558,13.429-2.491,16.478,3.718,5.5-5.441,9.154-11.593,13.43-11.593,15.249c0,1.837-.607,2.454,0,8.542.6,6.1-3.589,7.672-.27,10.239s7.411-.464,9.332,7.463l1.918,7.927s-3.839-2.875-1.918,3.148-.516,4.362,4.362,11.29,9.164,8.13,10.381,9.964-5.493-2.06,0,6.9-4.281,4.692,10.361,12.024c14.647,7.315,25.089,13.809,18.345,27.04" transform="translate(229.732 123.248)" fill="none" stroke="#0476a0" stroke-width="0.5"/>
    <path id="Path_9426" data-name="Path 9426" d="M130.379,162.741s4.305,17.219,15.9,8.2-2.441-12.592,9.761-13.553-10.99-1.291,13.43-4.781c24.4-3.5,15.854-12.857,19.52-22.206s14.609,0,14.609,0" transform="translate(192.789 186.673)" fill="none" stroke="#0476a0" stroke-width="0.5"/>
    <path id="Path_9427" data-name="Path 9427" d="M132.063,167.79s.322-8.537,8.47-7.932,11.184,14.642,19.123,5.488" transform="translate(195.279 236.334)" fill="none" stroke="#0476a0" stroke-width="0.5"/>
    <path id="Path_9428" data-name="Path 9428" d="M251.307,96.1s-8.737-1.217-12.815,10.986-5.7,8.373-5.7,20.866,4.072,14.116,0,18.184-11.385,9.9-11.385,9.9,4.077.265,0,5.356a23.843,23.843,0,0,0-4.883,9.461s-5.7,1.321-6.514,4.162c-.8,2.846-1.611.8,0,8.742,1.633,7.937.818,2.238,1.633,7.937s-17.09,10.981-10.574,15.66,13.826-8.247,19.52,10.824,4.9,30.339,16.275,29.184,2.434,18.374,21.143,11.043,8.135-14.768,23.592-11.043,26.854-10.938,35.8-7.676c0,0,28.478-23.183,23.6-32.332-4.89-9.149-17.09-2.984-30.917-10.135a58.447,58.447,0,0,1-21.151-19.16s-12.671-14.7,1.4-19.249" transform="translate(295.209 142.057)" fill="none" stroke="#0476a0" stroke-width="0.5"/>
    <path id="Path_9429" data-name="Path 9429" d="M288.272,248.849a212.6,212.6,0,0,0-16.919-15.7c-8.956-7.322-11.395-20.34-21.978-21.964s-4.88-12.493-26.834-6.246-26.852,7.057-29.3,8.67c-2.437,1.643-22.777,9.987-7.315,12.326s23.587,0,23.587,0-4.883-5.047-12.2-22.918S210.33,181.64,210.33,181.64,196.192,163.4,211.6,161.565" transform="translate(266.426 238.903)" fill="none" stroke="#0476a0" stroke-width="0.5"/>
    <path id="Path_9430" data-name="Path 9430" d="M202.941,157s9.528,7.714,11.147,15.618,6.526,16.29,0,21.044c-6.5,4.734-11.147,16.436-11.147,16.436" transform="translate(300.085 232.157)" fill="none" stroke="#0476a0" stroke-width="0.5"/>
    <line id="Line_1" data-name="Line 1" y1="0.052" transform="translate(293.979 517.945)" fill="none" stroke="#0476a0" stroke-width="0.5"/>
    <path id="Path_9431" data-name="Path 9431" d="M215.865,187.821s-3.941,26.036,0,33.76,6.378,14.235,11.256,19.936,4.519,10.569,4.519,10.569-8.571-8.945-17.532,1.633-6.514,17.076-4.878,20.34c1.621,3.242.092,4.885-1.586,8.943s-9.092.81-3.351,7.322,9.243,4.442,13.6,10.765,2.159,15.271,0,15.271-13.643-1.628-13.6-4.068-5.342-11.2-5.342-11.2v-4.253s-12.507,13.392-19,4.253-4.484-26.306-16.077-17.319" transform="translate(242.311 277.727)" fill="none" stroke="#0476a0" stroke-width="0.5"/>
    <path id="Path_9432" data-name="Path 9432" d="M263.638,223.787a171.361,171.361,0,0,1-20.4,6.844c-9.761,2.439-15.462,4.072-21.151,4.072H207.439" transform="translate(306.736 330.909)" fill="none" stroke="#0476a0" stroke-width="0.5"/>
    <path id="Path_9433" data-name="Path 9433" d="M191.211,213.748s18.057,13.826,26.693,15.462c8.653,1.624,13.531-8.95,13.531,0s8.15,15.455,0,26.849c-8.133,11.385,1.7,13.834,3.294,21.964s5.659,13.013,4.03,16.265-2.362.816-4.03,11.39l-1.666,10.579s-19.051.815-12.778-11.394,10.344-17.894,3.832-19.515-9.357,3.25-12.009-7.324c-2.632-10.579-2.236-3.688,0-15.274s-3.869-15.172,0-18.662-.989-17.455-.989-17.455" transform="translate(282.74 316.065)" fill="none" stroke="#0476a0" stroke-width="0.5"/>
    <path id="Path_9434" data-name="Path 9434" d="M191.964,265.1c-.615-9.761-12.8-15.864,0-17.081s27.65-8.338,27.65-8.338" transform="translate(275.232 354.408)" fill="none" stroke="#0476a0" stroke-width="0.5"/>
    <path id="Path_9435" data-name="Path 9435" d="M243.089,303.422c-1.653-5.54-1.217-2.439,0-14.027s8.524-23.188.6-29.908-28.658-6.707-34.754-10.978c-6.115-4.276-14.052,20.139-21.351,23.186-7.337,3.049-20.756,4.02-20.756,4.02s.6,19.16,12.207,20.992,7.364,7.324,14.359,15.256a65.4,65.4,0,0,0,16.141,12.81s6.11,6.715,12.2,4.883a63.745,63.745,0,0,0,9.7-3.656S246.75,315.63,243.089,303.422Z" transform="translate(246.681 366.726)" fill="none" stroke="#0476a0" stroke-width="0.5"/>
    <path id="Path_9436" data-name="Path 9436" d="M213.459,336.584s-5.639-6.72-10.443,0-18.922,8.056-16.748-2.989-.875-13.486,7.052-15.328c7.937-1.817,11.6,1.842,12.217-7.317.6-9.151-14.666-24.561-5.793-30.9" transform="translate(275.096 414.108)" fill="none" stroke="#0476a0" stroke-width="0.5"/>
    <path id="Path_9437" data-name="Path 9437" d="M161.724,259.777s2.449,33.564,0,38.452c-2.454,4.868-13.434,4.261-12.822,7.317s4.276,26.839,4.276,29.9-15.868,25.022-.622,26.234c15.269,1.22,25.022-1.212,25.022-8.544,0-7.312-.615-15.249,5.5-9.756s12.807,8.549,18.3,5.5-1.832-11.593,6.712-12.208,5.5,2.446,9.154-7.929,23.183-21.361,23.183-21.361" transform="translate(215.794 384.127)" fill="none" stroke="#0476a0" stroke-width="0.5"/>
    <path id="Path_9438" data-name="Path 9438" d="M130.544,326.226s8.358-13.742,12.237-10.688,16.067,17.115,20.343,10.688,12.2-25.34,12.2-25.34" transform="translate(193.033 444.914)" fill="none" stroke="#0476a0" stroke-width="0.5"/>
    <path id="Path_9439" data-name="Path 9439" d="M188.935,309.762s-12.207,4.883-13.42,10.978-6.11,13.424,0,14.029c6.093.617,9.441,3.059,16-4.873s15.105-8.239,9.612-13.264C195.65,311.589,196.148,305.94,188.935,309.762Z" transform="translate(255.083 456.18)" fill="none" stroke="#0476a0" stroke-width="0.5"/>
    <path id="Path_9440" data-name="Path 9440" d="M239.191,281.731c-2.528,8.43-12.2,12.785-4.883,20.127s10.376,10.378,4.883,22.578-6.8,10.054-7.974,28.517-5.736,25.788,5.389,32.5,18.454,18.912,23.937,0,15.878-28.066,18.307-41.488,5.483-39.029,11.588-53.681,11.6-5.285,11-17.6c-.625-12.312-1.227-45.261-9.164-40.995s-6.71,16.892-9.149,20.343-17.782.4-17.732,6.5,1.17,13.645,0,14.151-3.614-4.162-5.446,0S242.852,269.534,239.191,281.731Z" transform="translate(339.052 342.046)" fill="none" stroke="#0476a0" stroke-width="0.5"/>
    <path id="Path_9441" data-name="Path 9441" d="M244.627,157.11s-12.9,8.155-12.9,20.987v45.618" transform="translate(342.651 232.315)" fill="none" stroke="#0476a0" stroke-width="0.5"/>
    <path id="Path_9442" data-name="Path 9442" d="M213.372,118.972s1.628,14.651,13.387,7.334c11.781-7.324-6.938-22.546,4.447-16.56s4.077,11.266,27.665,6.593" transform="translate(315.509 160.263)" fill="none" stroke="#0476a0" stroke-width="0.5"/>
    <path id="Path_9443" data-name="Path 9443" d="M223.121,184.308h0a5.077,5.077,0,0,0-4.695-7.015,5.074,5.074,0,0,0-4.454,7.518l4.454,9.06,4.422-9.008a5.567,5.567,0,0,0,.27-.545Zm-4.695-4.4a2.469,2.469,0,1,1-2.469,2.471,2.467,2.467,0,0,1,2.469-2.471" transform="translate(315.469 262.159)" fill="#fff"/>
    <path id="Path_9444" data-name="Path 9444" d="M220.471,176.677h0a5.077,5.077,0,0,0-4.695-7.015,5.074,5.074,0,0,0-4.454,7.518l4.454,9.06,4.422-9.005a5.894,5.894,0,0,0,.27-.548Zm-4.695-4.4a2.469,2.469,0,1,1-2.469,2.471,2.47,2.47,0,0,1,2.469-2.471" transform="translate(311.55 250.876)" fill="#fff"/>
    <path id="Path_9445" data-name="Path 9445" d="M226.846,172.483h0a5.077,5.077,0,0,0-4.695-7.015,5.074,5.074,0,0,0-4.454,7.518l4.454,9.06,4.422-9.005a5.927,5.927,0,0,0,.27-.548Zm-4.695-4.4a2.469,2.469,0,1,1-2.469,2.471,2.47,2.47,0,0,1,2.469-2.471" transform="translate(320.977 244.674)" fill="#fff"/>
    <path id="Path_9446" data-name="Path 9446" d="M230.276,178.375h0a5.077,5.077,0,0,0-4.695-7.015,5.074,5.074,0,0,0-4.454,7.518l4.454,9.06L230,178.932a5.9,5.9,0,0,0,.27-.548Zm-4.695-4.4a2.469,2.469,0,1,1-2.469,2.471,2.467,2.467,0,0,1,2.469-2.471" transform="translate(326.049 253.386)" fill="#fff"/>
    <path id="Path_9447" data-name="Path 9447" d="M235.484,170.838h0a5.077,5.077,0,0,0-4.695-7.015,5.074,5.074,0,0,0-4.454,7.518l4.454,9.06,4.422-9.005a5.918,5.918,0,0,0,.27-.548Zm-4.695-4.4a2.469,2.469,0,1,1-2.469,2.471,2.47,2.47,0,0,1,2.469-2.471" transform="translate(333.75 242.242)" fill="#fff"/>
    <path id="Path_9448" data-name="Path 9448" d="M234.559,183.727h0a5.077,5.077,0,0,0-4.695-7.015,5.074,5.074,0,0,0-4.454,7.518l4.454,9.06,4.422-9.005a5.909,5.909,0,0,0,.27-.548Zm-4.695-4.4a2.469,2.469,0,1,1-2.466,2.471,2.47,2.47,0,0,1,2.466-2.471" transform="translate(332.382 261.3)" fill="#fff"/>
    <path id="Path_9449" data-name="Path 9449" d="M229.465,191.492h0a5.077,5.077,0,0,0-4.695-7.015,5.074,5.074,0,0,0-4.454,7.518l4.454,9.06,4.422-9.005a5.911,5.911,0,0,0,.27-.548Zm-4.695-4.4a2.469,2.469,0,1,1-2.469,2.471,2.47,2.47,0,0,1,2.469-2.471" transform="translate(324.849 272.782)" fill="#fff"/>
    <path id="Path_9450" data-name="Path 9450" d="M287.111,267.513a6.445,6.445,0,0,0-3.51-.5c.548,2.573-.307,4.357-3,4.206-1.857,6.2,4.187,4.457,7.255,3.951,5.337-.877,5.594-.364,6.385-6.945-3.292-.506-4.444.05-7.131-.711" transform="translate(414.407 394.736)" fill="none" stroke="#0476a0" stroke-width="0.5"/>
    <path id="Path_9451" data-name="Path 9451" d="M276.863,271.3c-7.136-3.621-5.736,4.66-8.043,9.067,4.221.555,9.724,10.125,15,5.24,4.729-4.377-2.489-13.888-6.958-14.307" transform="translate(397.499 399.849)" fill="none" stroke="#0476a0" stroke-width="0.5"/>
    <path id="Path_9452" data-name="Path 9452" d="M214.963,176.694h-.007a9.63,9.63,0,0,0,.741-3.708,9.735,9.735,0,1,0-18.27,4.672l8.537,17.358,8.475-17.257a10.792,10.792,0,0,0,.513-1.048Zm-9-8.437a4.729,4.729,0,1,1-4.729,4.729,4.73,4.73,0,0,1,4.729-4.729" transform="translate(290.157 241.402)" fill="#f0ae00"/>
    <path id="Path_9453" data-name="Path 9453" d="M192.5,186.761h0a3.415,3.415,0,1,0-6.15.337l2.994,6.09,2.972-6.053a3.869,3.869,0,0,0,.181-.367Zm-3.158-2.96a1.659,1.659,0,1,1-1.658,1.658,1.658,1.658,0,0,1,1.658-1.658" transform="translate(274.925 269.189)" fill="#f0ae00"/>
    <path id="Path_9454" data-name="Path 9454" d="M224.817,241.467h0a13.686,13.686,0,1,0-24.645,1.356l12,24.405,11.91-24.261a15.661,15.661,0,0,0,.729-1.475ZM212.168,229.6a6.65,6.65,0,1,1-6.648,6.655,6.652,6.652,0,0,1,6.648-6.655" transform="translate(293.49 329.113)" fill="#f0ae00"/>
    <path id="Path_9455" data-name="Path 9455" d="M235.715,216.526h0a22.18,22.18,0,1,0-39.944,2.2l19.448,39.55,19.3-39.317a24.319,24.319,0,0,0,1.18-2.392Zm-20.5-19.232a10.779,10.779,0,1,1-10.772,10.787,10.778,10.778,0,0,1,10.772-10.787" transform="translate(285.437 274.885)" fill="#f0ae00"/>
    <path id="Path_9456" data-name="Path 9456" d="M133.051,150.737h0a22.176,22.176,0,1,0-42.678-8.457A22.02,22.02,0,0,0,93.1,152.931l19.453,39.55,19.306-39.322a24.6,24.6,0,0,0,1.165-2.382Zm-20.5-19.239a10.782,10.782,0,1,1-10.782,10.782A10.78,10.78,0,0,1,112.548,131.5" transform="translate(133.63 177.601)" fill="#f0ae00"/>
    <path id="Path_9457" data-name="Path 9457" d="M80.826,151.6h0a22.176,22.176,0,1,0-42.678-8.457,22.021,22.021,0,0,0,2.724,10.651l19.453,39.55L79.629,154.02a24.585,24.585,0,0,0,1.165-2.382Zm-20.5-19.239A10.782,10.782,0,1,1,49.54,143.141a10.78,10.78,0,0,1,10.782-10.782" transform="translate(56.406 178.874)" fill="#f0ae00"/>
    <path id="Path_9458" data-name="Path 9458" d="M279.791,274.74h0a5.077,5.077,0,0,0-4.695-7.015,5.074,5.074,0,0,0-4.454,7.518l4.454,9.06,4.422-9.005a5.9,5.9,0,0,0,.27-.548Zm-4.695-4.4a2.469,2.469,0,1,1-2.469,2.471,2.47,2.47,0,0,1,2.469-2.471" transform="translate(399.266 395.879)" fill="#f0ae00"/>
    <path id="Path_9459" data-name="Path 9459" d="M290.8,269.477h0a5.079,5.079,0,1,0-9.776-1.933,5,5,0,0,0,.627,2.437l4.454,9.06,4.422-9a5.9,5.9,0,0,0,.27-.548Zm-4.695-4.4a2.469,2.469,0,1,1-2.469,2.471,2.471,2.471,0,0,1,2.469-2.471" transform="translate(415.549 388.097)" fill="#f0ae00"/>
  </g>
</svg>
