<svg width="41" height="13" viewBox="0 0 41 13" fill="none" xmlns="http://www.w3.org/2000/svg">
<path d="M0.888891 6.528C0.896342 7.00463 1.09259 7.45884 1.43457 7.79093C1.77654 8.12302 2.2363 8.30587 2.71295 8.29934L33.3037 8.29934V11.958C33.3037 12.7336 34.2398 13.1219 34.7868 12.573L40.2449 7.11493C40.585 6.77484 40.585 6.22494 40.2449 5.88484L34.7868 0.426731C34.2398 -0.122103 33.3037 0.268013 33.3037 1.04178V4.70043L2.71295 4.70043C2.4722 4.69714 2.23324 4.74218 2.01021 4.8329C1.78719 4.92362 1.58463 5.05818 1.41455 5.22859C1.24446 5.399 1.1103 5.60182 1.02001 5.82501C0.929717 6.04821 0.885131 6.28726 0.888891 6.528Z" fill="#1A7AA2"/>
</svg>
