<svg width="310" height="62" viewBox="0 0 310 62" fill="none" xmlns="http://www.w3.org/2000/svg">
<path d="M1.07601 6.27286C-3.93372 14.2442 12.2179 17.6707 18.5589 22.9515C29.2335 31.838 43.3628 38.2131 58.6196 43.5369C90.8211 54.7855 125.97 61.2652 164.564 61.6481C192.111 61.9193 219.29 58.4255 245.271 48.9343C267.977 40.6377 287.553 29.7357 303.392 15.9797C305.028 14.5573 306.448 13.0287 307.757 11.4857C308.553 10.543 309.248 9.46359 309.398 8.46255C309.536 7.50791 309.793 6.08543 308.632 5.63578C307.471 5.18613 305.508 6.08324 304.262 6.63874C302.662 7.35076 301.341 8.37505 299.988 9.3218C293.026 14.2003 286.221 19.1878 279.115 23.9744C258.481 37.8787 234.059 46.1499 206.421 49.6388C181.644 52.772 157.57 52.6213 134.14 49.6153C105.761 45.9753 79.3365 39.8412 56.2559 29.3019C41.899 22.7463 21.0842 4.89033 21.0842 4.89033C21.0842 4.89033 20.2416 3.92157 19.6213 3.38446C14.1012 -1.3951 4.95086 0.107318 1.07601 6.27286Z" fill="#FCB040"/>
</svg>
